<svg xmlns="http://www.w3.org/2000/svg" viewBox="0 0 855.47 681.76"><path d="m571.6 149.33-.54.1c-4.45.73-31.37 4.88-58.5-5.45-11.5-4.38-7.58-5.47-33.18-20.7-30.02-17.85-37.72-17.72-39.95-26.04-4.47-16.62 19.37-42.75 35.14-41.03 4.15.46 8.6 2.93 15.52 1.25 1.52-.37 8.17-1.98 11.41-7.49 2.9-4.91.45-8.46 1.61-12.48 3.06-10.58 28.52-15.86 50.84-12.13 12.84 2.15 22.82 8 42.27 19.63C630.07 65.22 647 75.33 650.8 90.83c3.6 14.7-5.05 21.02 1.25 36.75 5.86 14.64 15.16 13.66 18.37 25.5 5.15 19.07-13.98 39.99-21.95 48.7-8.73 9.56-17.09 14.8-28.18 21.76-13.93 8.74-20.89 13.1-29.26 12.66-15.17-.8-60.26 1.94-60.85-10.62-.22-4.7-54.91-.85-27.98-51.52 3.3-6.21 68 .43 68.86-3.14" fill="#2f2e41"/><path fill="#ffb6b6" d="m597.79 181.75 46.51 69.38-133.51 27 8.5-86.86 78.5-9.52z"/><path opacity=".1" d="m597.79 181.75 46.51 69.38-133.51 27 8.5-86.86 78.5-9.52z"/><path fill="#6c63ff" d="m500.79 233.13 144-6 64 35-3 225 67 127-338-64 26-96-12-202 52-19z"/><path d="M3.88 670.24a24.68 24.68 0 0 1-1.45-23.96l54.8-115.15a24.93 24.93 0 0 1 22.4-14.15H771.9c9.25 0 17.67 5.1 21.97 13.29l58.74 111.98a24.63 24.63 0 0 1-.71 24.32 24.63 24.63 0 0 1-21.16 12.01l-805.8 3.18h-.1c-8.55 0-16.37-4.3-20.95-11.52Z" fill="#fff"/><path d="M3.88 670.24a24.68 24.68 0 0 1-1.45-23.96l54.8-115.15a24.93 24.93 0 0 1 22.4-14.15H771.9c9.25 0 17.67 5.1 21.97 13.29l58.74 111.98a24.63 24.63 0 0 1-.71 24.32 24.63 24.63 0 0 1-21.16 12.01l-805.8 3.18h-.1c-8.55 0-16.37-4.3-20.95-11.52Zm75.75-150.65a22.31 22.31 0 0 0-20.05 12.66L4.78 647.4a22.09 22.09 0 0 0 1.3 21.44 22.08 22.08 0 0 0 18.74 10.31h.1l805.8-3.17a22.04 22.04 0 0 0 18.94-10.75 22.04 22.04 0 0 0 .64-21.77l-58.75-111.99a22.14 22.14 0 0 0-19.66-11.88H79.63Z" fill="#3f3d56"/><path d="M707.44 637.73 421.76 618.1a9.33 9.33 0 0 1-8.57-7.24 9.33 9.33 0 0 1 4.35-10.35l63.17-37.9a9.42 9.42 0 0 1 5.3-1.34l247.11 11.23a9.43 9.43 0 0 1 7.8 4.77 9.43 9.43 0 0 1 .15 9.15l-24.6 46.31a9.5 9.5 0 0 1-9.03 5.01Z" fill="#3f3d56"/><path fill="#fff" d="m419.29 606.63 284.5 19.5 22.5-48.5-243.95-9.56-63.05 38.56z"/><circle cx="559.29" cy="119.63" r="85.49" fill="#ffb6b6"/><path d="m586.82 125.17-.54.09c-4.45.73-31.36 4.89-58.5-5.45-11.5-4.38-7.57-5.47-33.17-20.7-30.02-17.84-37.72-17.72-39.96-26.04-4.46-16.62 19.37-42.74 35.15-41.02 4.15.45 8.6 2.92 15.51 1.25 1.52-.37 8.18-1.99 11.42-7.5 2.9-4.9.44-8.45 1.6-12.48 3.06-10.58 28.52-15.86 50.84-12.13 12.84 2.15 22.83 8 42.28 19.63 33.85 20.23 50.77 30.35 54.58 45.85 3.6 14.69-5.05 21.02 1.24 36.74 5.86 14.64 15.17 13.66 18.37 25.51 5.16 19.06-13.97 39.98-21.94 48.7-8.74 9.55-17.1 14.8-28.19 21.75-13.92 8.74-20.88 13.11-29.25 12.67-15.18-.81-30.27-14.56-30.86-27.12-.22-4.7 1.74-6.12 6.6-22.3 2.03-6.74 3.43-12.3 4.29-15.87" fill="#2f2e41"/><path d="M645.42 583.21c5.5.22 9.69 5.15 9.99 10.49.31 5.54-3.54 10.64-8.17 13.28-5.42 3.1-12.19 3.59-18.3 3.06-5.49-.48-11.46-2.2-15-6.73-2.97-3.81-4.07-9.58-1.54-13.91 2.51-4.3 7.84-5.48 12.3-3.76a11.87 11.87 0 0 1 7.72 11.2c.04 5.62-3.21 10.81-7.77 13.92-4.92 3.36-11.1 4.44-16.96 4.42a48.09 48.09 0 0 1-18.59-3.83c-5.5-2.33-10.98-5.69-14.91-10.25-3.68-4.28-5.89-10.21-3.85-15.76a10.43 10.43 0 0 1 10.77-6.95c4.44.35 8.94 2.93 10.91 7.03 2.22 4.63 1.23 10.2-1.6 14.33-3.28 4.78-8.44 7.47-14.18 7.86-6.1.41-12.16-1.76-17.18-5.11-4.65-3.11-8.74-7.09-13.74-9.67a16.83 16.83 0 0 0-7.74-2.03c-3.46 0-6.8 1.14-10.16 1.8-2.86.56-5.8.89-8.62-.03a12.41 12.41 0 0 1-6.2-4.26 7.14 7.14 0 0 1-1.12-6.68c.64-1.81 3.54-1.03 2.9.8-1.5 4.21 3.61 7.3 7.19 7.7 2.7.29 5.5-.5 8.12-1.1 2.73-.64 5.52-1.3 8.34-1.23 9.99.25 16.6 8.79 24.64 13.42 8.47 4.87 20.87 5.2 26.06-4.47 1.88-3.51 2.27-8.19-.32-11.47a10.52 10.52 0 0 0-9.45-3.84c-4.36.66-6.53 4.81-6.37 8.94.2 5.05 3.71 9.15 7.47 12.18a44.71 44.71 0 0 0 30.12 9.56c5.02-.28 10.35-1.59 14.24-4.93 3.37-2.88 5.67-7.57 4.86-12.07a8.91 8.91 0 0 0-7.9-7.23c-4.04-.4-7.19 2.46-7.37 6.49-.2 4.53 2.5 8.31 6.4 10.37 4.41 2.34 9.76 2.63 14.66 2.38 5.2-.28 10.61-1.65 14.25-5.6 3.1-3.38 4.28-8.39 1.42-12.3a7.03 7.03 0 0 0-5.32-3.02c-1.92-.08-1.93-3.08 0-3Z" fill="#6c63ff"/><path d="m508.7 580 1.52-9.46 84.88-162.22a5.5 5.5 0 0 1 9.74 5.1l-84.83 162.15-6.94 6.72c-.82.79-2 .96-3.01.43a2.57 2.57 0 0 1-1.37-2.72Z" fill="#3f3d56"/><path d="M566.55 476.79a61.02 61.02 0 0 1 26.26 11.87l.43.1.08-.44 92.5 14.49-6.7-123.04 70.11-38.4-16.57 207.98a24.6 24.6 0 0 1-30.59 17.21L584.32 532.7l.3-1.45-.42-.1a61.02 61.02 0 0 1-28.81.71c-23.9-4.83-40.78-21.08-37.7-36.29 3.08-15.2 24.95-23.61 48.86-18.77Z" fill="#ffb6b6"/><path d="m629.79 284.13 79-22s41.5 30.5 46.5 63.5c.6 3.93 2.24 186.75.5 191.5-12.92 35.22-84-21-84-21l-42-212Z" fill="#6c63ff"/><path d="m287.12 612.72-8.19-7.02a8.81 8.81 0 0 0-4.29-2L92.16 573.29a9.6 9.6 0 0 1-8.03-7.86 9.6 9.6 0 0 1 4.6-10.24l65.1-39.06a9.77 9.77 0 0 1 7.21-1.16l231.37 52.27c4.5 1.02 7.5 4.65 7.65 9.26s-2.61 8.43-7.04 9.73l-96.74 28.46a9.84 9.84 0 0 1-9.16-1.97Z" fill="#3f3d56"/><path d="M199.24 385.88a61.02 61.02 0 0 1 23.47 16.73l.4.18.17-.41 87.95 32.12 93.9-152.04 51.92 32.17-108.88 174.6a24.6 24.6 0 0 1-33.34 10.96l-108.97-56.02.57-1.36-.38-.2c-9.73.68-19.47-1-28.42-4.87-22.5-9.37-35.91-28.58-29.95-42.9 5.97-14.32 29.05-18.33 51.56-8.96Z" fill="#ffb6b6"/><path d="m505.87 309.9-41.54-62.1s-49.42 9.78-69.78 36.23c-2.55 3.3-89.97 130.09-90.53 135.62-3.94 38.73 96.53 56.88 96.53 56.88l105.32-166.62Z" fill="#6c63ff"/><path d="M282.6 614.59 73.42 585.68c-7-.97-12.78-5.99-14.72-12.78L10.66 404.74c-1.63-5.7-.42-11.6 3.33-16.19s9.28-6.96 15.2-6.51l210.75 16.14a17.85 17.85 0 0 1 15.92 13.36l46.48 180.92a17.82 17.82 0 0 1-17.28 22.3c-.82 0-1.64-.06-2.46-.17Z" fill="#3f3d56"/><path d="M235.98 270.17c1.22 1.34 5.66-.03 14.48-2.83 6.7-2.12 7.74-2.9 8.38-3.45 2.24-1.95 2.83-4 5.05-13.05 3.99-16.25 4.11-17.86 6.16-21.31.7-1.19 2.49-4.02 2.05-4.37-.44-.36-2.37 2.59-5.93 3.7-3.48 1.09-5.04-.65-8-.2-3.84.56-6.11 4.2-9.69 10.1-3.16 5.21-3.56 7.31-8 17.68-1.26 2.94-2.27 5.2-3.05 7a1833.14 1833.14 0 0 0-25.91 24.69l.46-.7c3.79-5.83 4.3-8.95 4.25-11.29-.1-3.79-1.9-6.67-5.52-12.3-3.54-5.5-6.9-9.13-10.94-13.46-5.3-5.69-7.96-8.53-9.01-8.34-7.55 1.33-9.56 52.69-.07 61.87a16.69 16.69 0 0 0-3.24 2.93c-8.12-9.02-22.03-19.1-37.45-20.34-9.5-.76-14.75 2.22-16.38 3.24-7.53 4.74-12.02 14.21-9.77 16.89 2.1 2.5 8.17-3.18 20.05-2.86 8.29.21 14.76 3.22 18.6 5 8.07 3.75 11.02 7.43 16.97 9.96-2.79 2.3-5 5.16-6.39 7.83l-1.43 1.5c-6.14-3.46-13.05-6-20.3-6.58-9.5-.77-14.74 2.21-16.37 3.24-5.08 3.19-8.76 8.53-9.94 12.5-.77.15-1.48.32-2.13.51-2.3-5.2-9.16-10.69-15.53-13.45-10.97-4.77-25.22-3.5-26.75 1.02-.04.15-.06.3-.08.43 1.2-9.7 2.84-19.33 4.88-28.9.07.28.15.55.27.84 2.7 6.8 10.02 13.33 20 16.72 7.83 2.66 11.1 1.28 11.94.9.8-.37 4.23-1.85 5.07-4.78 1.56-5.44-8-21.51-14.03-16.12-19.37 17.32-22.03 3.3-22.92.94a371.17 371.17 0 0 1 5.67-22.56l.1.14c4.24 5.13 12.38 8.75 21.96 8.9 7.51.13 9.97-1.97 10.58-2.53.59-.54 3.15-2.77 3.06-5.55-.16-5.14-9.3-9.32-16.62-10.05-6.74-.67-14 1.4-17.6 4.01 1.68-5.6 3.48-11.17 5.4-16.72 4.92 2.01 11.89 1.74 18.73-1.32 5.65-2.52 6.75-4.95 7.01-5.58.25-.6 1.38-3.17.35-5.2-1.9-3.78-10.18-3.72-15.89-1.71-2.35.83-4.59 2.1-6.5 3.54 3.4-9.1 7.11-18.13 11.1-27.1l-4-1a358.16 358.16 0 0 0-13.36 34.79 31.84 31.84 0 0 0-3.23-10.08c-4.61-8.76-14.45-15.33-17.78-13.2-.67.43-.95 1.13-1.2 1.95-2.04 6.65-.5 15.84 4.87 24.29 4.22 6.62 7.46 7.55 8.31 7.76.72.18 3.47.94 5.74-.04a364.49 364.49 0 0 0-4.22 15.75 30.6 30.6 0 0 0-7.82-10.77c-7.43-6.52-18.98-9.13-21.32-5.95-.47.63-.49 1.38-.43 2.24.48 6.94 5.2 14.98 13.24 20.94 6.3 4.68 9.67 4.38 10.54 4.28.5-.06 2.05-.22 3.53-.89a376.19 376.19 0 0 0-3.62 19.3c-2.08-7.23-9.16-16.24-15.83-13.38-11.84 5.1-25.77-2.72-27.3.7-.4.89-.07 1.8.31 2.8 3.07 8.01 11.55 15.77 23.18 19.9 9.14 3.23 13 1.67 13.98 1.23.65-.29 2.8-1.19 4.4-2.85a395.22 395.22 0 0 0-2.65 25.03c-2.47-5.39-9.43-11.07-15.94-14-11.42-5.14-26.36-4.01-28.02.7-.33.95-.07 1.86.32 2.89 3.15 8.22 11.85 16.19 23.8 20.42 9.37 3.32 13.33 1.72 14.34 1.27.74-.33 3.34-1.42 5-3.48a415.1 415.1 0 0 0-.48 11.64l-.07 3.33c-.13.22-.25.44-.33.67-.32.95-.1 1.86.27 2.86l-.01 2.11c-2.1-1.89-4.59-4.74-7.59-8.8-2.7-3.66-5.27-.97-6.92 2.15-2.59-.58-5.06-.22-7 1.59-13.01 12.16-27.61 5.7-27.82 9.33-.06 1.05.5 1.88 1.2 2.78 5.7 7.26 16.85 12.56 30.1 13.12 10.4.44 13.88-2.4 14.75-3.15.3-.27 1-.85 1.73-1.66.6.48 1.18.91 1.76 1.3.23 6.96.64 13.92 1.25 20.86-.5.04-.97.12-1.32.16-5.04.51-6.74-6.29-14.35-8.77-2.53-.83-7.4-1.73-9.96 0-.37.25-1.63 1.18-3.6 2-1.15.47-2.03.7-2.38.79-3.13.85-6.02 3.2-7.97 4.78-3.68 2.98-5.52 4.47-6.38 7.18-.27.85-1.04 3.24 0 5.58.49 1.1 1.62 2.74 5.98 4.38 2.59.98 10.13 3.82 19.13.8 2.05-.7.48-.45 8.37-4.39 6.2-3.1 9.83-4.58 10.36-7.57.19-1.05 0-2.33.8-2.79.44-.25.98-.13 1.51.06.53 5.58 1.18 11.15 1.97 16.7h-7.1a24.48 24.48 0 0 0-22.07 13.7l-26.55 53.57a24.75 24.75 0 0 0-2.56 10.94v137.74a24.66 24.66 0 0 0 24.63 24.63h61.97a24.66 24.66 0 0 0 24.63-24.63V510.35c0-3.09-.57-6.11-1.7-9l-25.3-64.47a24.46 24.46 0 0 0-17.67-15.06c2.55-3.02 5.1-6.04 7.68-9.05a51.72 51.72 0 0 0 10.63 3.74c10.14 2.39 14.08.26 15.08-.32.95-.56 5.08-2.82 5.78-6.6.07-.4.1-.82.1-1.23 10.38 8.44 15.8 12.6 19.75 11.21 3.4-1.2 5.35-5.1 6.46-8.6l3.7.5c14.22 1.9 21.39 2.78 24.13-.6 3.8-4.65.2-13.64-.8-16.12-2.16-5.38-5.47-8.66-7.53-10.65-2.68-2.59-10.31-9.97-22.32-10.95a25 25 0 0 0-7.35.45 31.8 31.8 0 0 0-2.67-2.22 25.04 25.04 0 0 0-5.63-3.13c3-3.3 6.02-6.57 9.05-9.84l1.35.62c9.92 4.6 12.1 9.12 21.64 11.5 4.33 1.07 9.23 2.3 10.45.46 2.15-3.26-7-16.67-21.13-25.74l2.86-3.02c1.3.54 2.43 1.07 3.4 1.52 9.92 4.6 12.1 9.12 21.65 11.5 4.32 1.07 9.22 2.3 10.44.46 1.92-2.9-5.16-13.9-16.74-22.68a37.7 37.7 0 0 1 12.87-1.99c8.29.22 14.76 3.23 18.6 5.02 9.93 4.6 12.1 9.12 21.65 11.5 4.33 1.07 9.23 2.29 10.44.45 3.2-4.84-18.56-32.13-44.59-34.23a35.43 35.43 0 0 0-5.48-.03c-.22-.37-.47-.76-.73-1.15 8.8.28 26-2.23 40.65 8.04 4.22 2.97 12.42 9.94 26.14 15.67 4.4 1.83 6.6 2.73 7.2 1.98 2.18-2.7-15.9-24.84-41.34-35.75-10.09-4.33-16.32-4.74-20.75-4.08.68-.78 1.35-1.58 1.99-2.4 9.9-9.7 19.93-19.32 30.05-28.8-.49 1.51-.47 2.32.07 2.9ZM108.86 391.08c-11.19-3.62-24.74-1.68-28.27 2.45-.5-3.66-.93-7.31-1.29-10.98 5.1 2.85 10.42 3.61 20.5 4.96 4.3.57 7.95 1.05 11.03 1.35.41 1.12.85 2.13 1.37 3.1l.18.32-.09.1a38.4 38.4 0 0 0-3.43-1.3Zm-29.73-49.07c.32-1.06.33-2.18.08-3.35.35-4.2.79-8.4 1.3-12.59-.01.64.2 1.28.47 1.98 3.1 7.8 11.51 15.3 22.97 19.2 2.14.72 3.97 1.18 5.55 1.46a18.59 18.59 0 0 0-1.58 3.48c-3.9-3.14-8.93-5.42-14.64-3-1.55.66-2.47 3.07-3.27 5.95-5.27.1-9.68 1.2-11.77 3.05 0-.77 0-1.55.03-2.32.11-4.43.33-8.85.64-13.25.08-.2.16-.4.22-.6Zm-.88 22.78c.23.47.48.93.74 1.4l-.72-.57-.02-.83Zm9 56.69c-.61-.08-1.23-.14-1.86-.18a490.69 490.69 0 0 1-3.89-21.48c2.93 4.65 7.72 8.9 13.81 12.14-2.7 3.16-5.38 6.34-8.06 9.52Zm47.22-53.86c-3.81-1.23-8.3-1.81-14.49-2.53a35.94 35.94 0 0 0-4.38-4.95c-.65-.63-1.65-1.87-2.94-3.32 3.34-1.08 8.33-2.99 15.37-2.8 6.4.17 11.72 2 15.58 3.65-3.06 3.3-6.1 6.62-9.14 9.95Zm21.62-23.3a56.93 56.93 0 0 0-12.1-5.58h1.26c5.31.14 9.87 1.42 13.48 2.8l-2.64 2.77Z" fill="#ccc"/></svg>